<svg version="1.1" viewBox="0.0 0.0 738.0 280.0" fill="none" stroke="none" stroke-linecap="square" stroke-miterlimit="10" xmlns:xlink="http://www.w3.org/1999/xlink" xmlns="http://www.w3.org/2000/svg"><clipPath id="p.0"><path d="m0 0l738.0 0l0 280.0l-738.0 0l0 -280.0z" clip-rule="nonzero"/></clipPath><g clip-path="url(#p.0)"><path fill="#000000" fill-opacity="0.0" d="m0 0l738.0 0l0 280.0l-738.0 0z" fill-rule="evenodd"/><path fill="#1155cc" d="m118.91863 0l-118.91863 161.65092l76.1811 -0.9291382l-39.947502 121.703415l126.349075 -170.94226l-73.39369 0.92913055z" fill-rule="evenodd"/><path fill="#000000" fill-opacity="0.0" d="m196.95801 10.3149605l647.5275 0l0 261.79526l-647.5275 0z" fill-rule="evenodd"/><path fill="#000000" d="m213.95801 211.31496q-1.59375 0 -2.796875 -1.203125q-1.203125 -1.203125 -1.203125 -2.796875q0 -1.0 0.203125 -2.203125l49.59375 -129.39062q0.796875 -2.0 2.203125 -3.203125q1.40625 -1.203125 4.203125 -1.203125l13.59375 0q2.796875 0 4.203125 1.203125q1.40625 1.203125 2.203125 3.203125l49.390625 129.39062q0.40625 1.203125 0.40625 2.203125q0 1.59375 -1.203125 2.796875q-1.203125 1.203125 -2.796875 1.203125l-10.203125 0q-2.390625 0 -3.5 -1.203125q-1.09375 -1.203125 -1.5 -2.203125l-11.0 -28.390625l-65.59375 0l-11.0 28.390625q-0.203125 1.0 -1.40625 2.203125q-1.203125 1.203125 -3.59375 1.203125l-10.203125 0zm32.0 -49.0l54.0 0l-27.0 -70.99999l-27.0 70.99999zm113.40628 49.0q-2.0 0 -3.3125 -1.296875q-1.296875 -1.296875 -1.296875 -3.296875l0 -94.81249q0 -2.0 1.296875 -3.296875q1.3125 -1.296875 3.3125 -1.296875l9.0 0q2.0 0 3.296875 1.296875q1.296875 1.296875 1.296875 3.296875l0 7.0q4.59375 -6.1875 11.59375 -9.890625q7.0 -3.703125 16.8125 -3.703125q22.59375 -0.203125 32.0 18.40625q4.59375 -8.40625 13.390625 -13.40625q8.796875 -5.0 20.0 -5.0q10.40625 0 18.90625 4.796875q8.5 4.796875 13.390625 14.5q4.90625 9.703117 4.90625 24.296867l0 57.8125q0 2.0 -1.296875 3.296875q-1.296875 1.296875 -3.296875 1.296875l-9.40625 0q-2.0 0 -3.296875 -1.296875q-1.296875 -1.296875 -1.296875 -3.296875l0 -56.0q0 -11.203125 -3.203125 -17.59375q-3.203125 -6.4062424 -8.609375 -8.999992q-5.390625 -2.609375 -11.796875 -2.609375q-5.203125 0 -10.609375 2.609375q-5.390625 2.59375 -8.890625 8.999992q-3.5 6.390625 -3.5 17.59375l0 56.0q0 2.0 -1.296875 3.296875q-1.296875 1.296875 -3.296875 1.296875l-9.40625 0q-2.0 0 -3.296875 -1.296875q-1.296875 -1.296875 -1.296875 -3.296875l0 -56.0q0 -11.203125 -3.40625 -17.59375q-3.390625 -6.4062424 -8.796875 -8.999992q-5.40625 -2.609375 -11.40625 -2.609375q-5.1875 0 -10.59375 2.609375q-5.40625 2.59375 -8.90625 8.999992q-3.5 6.390625 -3.5 17.390625l0 56.203125q0 2.0 -1.296875 3.296875q-1.296875 1.296875 -3.296875 1.296875l-9.59375 0zm177.98752 38.0q-2.0 0 -3.296875 -1.296875q-1.296875 -1.296875 -1.296875 -3.296875l0 -132.8125q0 -2.0 1.296875 -3.296875q1.296875 -1.296875 3.296875 -1.296875l9.203125 0q2.0 0 3.296875 1.296875q1.3125 1.296875 1.3125 3.296875l0 8.8125q4.796875 -6.609375 12.796875 -11.0q8.0 -4.40625 20.0 -4.40625q11.203125 0 19.09375 3.796875q7.90625 3.796875 13.0 10.40625q5.109375 6.59375 7.703125 14.999992q2.59375 8.390625 3.0 18.0q0.203125 3.203125 0.203125 6.796875q0 3.59375 -0.203125 6.796875q-0.40625 9.40625 -3.0 17.90625q-2.59375 8.5 -7.703125 15.0q-5.09375 6.5 -13.0 10.40625q-7.890625 3.890625 -19.09375 3.890625q-11.609375 0 -19.515625 -4.296875q-7.890625 -4.296875 -12.890625 -10.703125l0 46.40625q0 2.0 -1.203125 3.296875q-1.1875 1.296875 -3.1875 1.296875l-9.8125 0zm42.40625 -52.203125q10.40625 0 16.296875 -4.5q5.90625 -4.5 8.5 -11.796875q2.609375 -7.296875 3.0 -15.703125q0.203125 -5.796875 0 -11.59375q-0.390625 -8.40625 -3.0 -15.703125q-2.59375 -7.296875 -8.5 -11.796867q-5.890625 -4.5 -16.296875 -4.5q-9.796875 0 -15.90625 4.609375q-6.09375 4.5937424 -9.0 11.687492q-2.890625 7.09375 -3.296875 14.5q-0.203125 3.203125 -0.203125 7.609375q0 4.390625 0.203125 7.796875q0.203125 7.0 3.296875 13.796875q3.109375 6.796875 9.296875 11.203125q6.203125 4.390625 15.609375 4.390625zm107.99695 16.203125q-11.203125 0 -19.203125 -2.796875q-8.0 -2.796875 -13.0 -6.796875q-5.0 -4.0 -7.5 -8.0q-2.5 -4.0 -2.6875 -6.40625q-0.203125 -2.203125 1.390625 -3.390625q1.609375 -1.203125 3.203125 -1.203125l9.0 0q1.0 0 1.703125 0.296875q0.703125 0.296875 1.890625 1.703125q2.609375 2.796875 5.796875 5.59375q3.203125 2.796875 7.90625 4.609375q4.703125 1.796875 11.703125 1.796875q10.203125 0 16.796875 -3.90625q6.609375 -3.90625 6.609375 -11.5q0 -5.0 -2.703125 -8.0q-2.703125 -3.0 -9.609375 -5.390625q-6.890625 -2.40625 -18.890625 -5.015625q-12.0 -2.796875 -19.0 -6.890625q-7.0 -4.109375 -10.0 -9.796875q-3.0 -5.703125 -3.0 -12.90625q0 -7.4062424 4.390625 -14.296867q4.40625 -6.90625 12.90625 -11.296875q8.5 -4.40625 21.296875 -4.40625q10.40625 0 17.796875 2.609375q7.40625 2.59375 12.203125 6.5q4.796875 3.890625 7.203125 7.6875q2.40625 3.796875 2.59375 6.4062424q0.203125 2.0 -1.203125 3.296875q-1.390625 1.296875 -3.1875 1.296875l-8.40625 0q-1.390625 0 -2.296875 -0.59375q-0.90625 -0.609375 -1.703125 -1.40625q-2.0 -2.59375 -4.703125 -5.1874924q-2.6875 -2.609375 -7.0 -4.3125q-4.296875 -1.703125 -11.296875 -1.703125q-10.0 0 -15.0 4.203125q-5.0 4.2031174 -5.0 10.609367q0 3.796875 2.203125 6.796875q2.203125 3.0 8.390625 5.40625q6.203125 2.390625 18.40625 5.1875q13.203125 2.609375 20.796875 7.015625q7.609375 4.390625 10.796875 10.1875q3.203125 5.796875 3.203125 13.40625q0 8.390625 -4.796875 15.390625q-4.796875 7.0 -14.40625 11.109375q-9.59375 4.09375 -23.59375 4.09375z" fill-rule="nonzero"/></g></svg>
